<svg xmlns="http://www.w3.org/2000/svg" xmlns:xlink="http://www.w3.org/1999/xlink" width="1000" height="1200" viewBox="0 0 1000 1200"><defs><style>.a,.d,.g,.l,.m,.o{fill:none;}.b,.e{fill:#325c3d;}.b,.c,.d,.e,.f,.g,.h,.i,.j,.k,.l,.m,.o,.p,.r{stroke:#000;}.b,.c,.d,.e,.f,.g,.h,.i,.j,.k,.l,.m,.o,.p,.q,.r{stroke-miterlimit:10;}.b,.f,.i,.j,.l,.r{stroke-width:0.2px;}.c,.r{fill:#2d4f35;}.c,.d{stroke-width:0.3px;}.e,.g,.h,.k,.p,.q{stroke-width:0.1px;}.f{fill:#b0bf58;}.h,.q{fill:#43714e;}.i{fill:#fff;}.j{fill:#00407f;}.m{stroke-width:0.5px;}.n{fill:#93c7c9;}.o{stroke-width:0.7px;}.p{fill:#f2c0e9;}.q{stroke:#2e603a;}</style><symbol id="a" viewBox="0 0 200 200"><rect class="a" width="200" height="200"/><path class="b" d="M90.69,164s-11.47,11.58-18.52,14.4c0,0-11.74,4.93-19,2.82s-2.11-7.75,2.12-4.7c0,0-3.53-9.63,6.57-4.46,0,0-2.81-10.1,7.52-5.17,0,0-3.76-8.21,4-4.69,0,0-8.7-13.15,4.7-7.75,0,0-5.87-13.6,8.34-4.22C86.39,150.21,95.12,156.15,90.69,164Z"/><path class="c" d="M80.87,103.24c3-10.56-.71-10.33-.71-10.33C73.82,91,50.48,67.44,48.21,67.55c-4.7-3-44.63,7.77-44.16,12C11.1,97.63,27.77,91.27,27.77,91.27c-2.08,11.7-3.29,18.31,0,19.72,6.11,1.64,12.19-3.86,20-14.79,0,7,1.25,11.56,4,12.68,2.84,1.35,10.39-6.83,10.58-10.51-.19-.15-.21-.26,0-.29a2.71,2.71,0,0,1,0,.29c1.57,1.3,15.5,6.28,15.5,6.28C77.76,104.87,80.4,105.36,80.87,103.24Z"/><path class="d" d="M53.14,105.82c6-16-3.75-33.53-4-34.75,0,0-.71,13.62-18.33,36.4"/><path class="d" d="M49.15,71.07S28.94,83.28,15.32,82.58"/><path class="c" d="M191.05,68.54c-6.4,3.2-24.2-5.16-27.25.47s-29.34,27.6-30.31,27.71c-2.11.23-4.23,9.39,2.12,8.92,8.22.94,18.49-8,18.49-8-.17,1.44,6.65,5.19,9.87,3.76,2-1,2.51-8.57,1.72-10.24l-.25-.3a.59.59,0,0,1,.25.3c4,4.88,12.05,8.11,16,6,3.29-1.88,3.3-8.78,1.17-15.73C187.34,83.21,197.16,65.49,191.05,68.54Z"/><path class="d" d="M178.13,92.73c-8.69-4.23-11.28-20.2-11.28-20.2s-10.8,9.87-6.34,24.19"/><path class="d" d="M185.42,73.71s-3.29,4.23-18.57-1.18"/><path class="e" d="M133.73,93.38c23.87-12.13,4.59-30.9,4-30.29,5.64-19.25-4.23-27.24-3.29-27s17.62-11.51,9.87-16.2-16.21,10.8-16.21,10.8c-23-11.74-40.88,7-40.88,7-10.34-16.9-16-9.16-16-9.16-4,11.27,12.69,16.21,12.69,16.21-3.29,7,2.82,20,2.82,20-19.74,85.24-7,91.71,6.34,97.45,20.17,8.69,47,1.17,50.52-6.11,7.59-15.69,4.58-28.16-4.7-38.74C135.73,114.29,133.73,93.38,133.73,93.38Z"/><path class="f" d="M113.52,106.76S103,105.12,99,115c0,0-13.4,37.1,16.44,37.1S128.56,107,113.52,106.76Z"/><path class="b" d="M108.35,171.57s12,7.75,4.7,13.85-18.32-3.28-18.79-7-6.11-17.61,5.64-18.55S108.35,171.57,108.35,171.57Z"/><path class="g" d="M50.3,164.35"/><path class="b" d="M136.6,155.6c-11.45-.76-12.69,10.33-10.34,15.74,0,0-10.1,7-1.17,13.85s16.08-5.62,18.09-9.63C143.18,175.56,143.65,156.07,136.6,155.6Z"/><path class="h" d="M145.48,77.7s-.71-21.89-29.37-19.31S87.44,76.47,87.68,79.53s2.58,18.55,31,16.9S145.48,77.7,145.48,77.7Z"/><path class="f" d="M99,115s15.85,2.65,23.54-3.25"/><path class="f" d="M97.08,121.32s17.38,3.76,29.36-4"/><path class="f" d="M96.14,127.9s15.5,5.16,33.59-4"/><path class="f" d="M96.06,134.7s12.11,6.65,35.46-3.95"/><path class="f" d="M97.5,141.55s8.79,6.37,34-2.94"/><path class="f" d="M103.24,149s8.64,5,25.74-2.64"/><path class="b" d="M87.21,104s5.64-3.06,9.63,12.91c0,0,14.1,9.86,8.69,15.73s-13.62-2.11-17.15-7.75S81.57,106.06,87.21,104Z"/><path class="b" d="M128.56,100.89s-5.41-2.81-6.11,11.74c0,0-10.1,11.51-6.11,16.91s14.57-1.64,16-8.69C132.55,118.27,135.61,101.6,128.56,100.89Z"/><path class="i" d="M104.36,39.38s-5.64,1.17-3,10.56,8.22,7.75,8.22,7.75,5.87-.24,3.29-11S101.78,40.31,104.36,39.38Z"/><path class="i" d="M121.75,37.73s-7-.47-5.88,10.1,8.93,8.92,8.93,8.92,4.23-1.41,2.58-11C126.21,37.5,121.75,37.73,121.75,37.73Z"/><path class="j" d="M104.19,55.72s-2.41-6.95,1.11-9.77,7.31-.09,7.31-.09,2.83,9.39-1.77,11.43A5.52,5.52,0,0,1,104.19,55.72Z"/><path class="j" d="M127.21,44.67s-2.88-4.12-6.87-1.3-1.54,11.56-1.54,11.56a7,7,0,0,0,6,1.82C129,54.87,127.5,45.74,127.21,44.67Z"/><path class="k" d="M75.7,33.5s3.76,6.34,6.57,5.88C85.56,38.67,75.23,30.45,75.7,33.5Z"/><path class="k" d="M140.07,24.11s-8.69,3.76-6.81,7.05C135.37,34.68,144.77,23.17,140.07,24.11Z"/><path class="d" d="M99.9,39.38S101.31,34,105.77,37"/><path class="d" d="M118.69,36.09s3.29-4,6.11,0"/><path class="l" d="M99,76.47s-6.58-3.75-1.41-8,8.22,5.17,8.22,5.17"/><path class="l" d="M129,74.6s2.82-8.46,8.22-3.29-3.05,7.75-3.05,7.75"/><path class="k" d="M109.29,49.94a3.75,3.75,0,0,0,0,5.4C112.35,57.69,111.41,48.3,109.29,49.94Z"/><path class="k" d="M123.15,48.53a3.43,3.43,0,0,0,0,4.93C125.74,55.11,125.27,46.65,123.15,48.53Z"/><ellipse class="k" cx="103.65" cy="74.36" rx="2.11" ry="1.41"/><ellipse class="k" cx="130.91" cy="75.18" rx="2.11" ry="1.53"/></symbol><symbol id="b" viewBox="0 0 200 200"><rect class="a" width="200" height="200"/><path class="b" d="M85.2,160.9S70.09,167,62.5,166.81c0,0-12.74-.11-18.6-4.93s1.12-7.95,3.8-3.48c0,0,.57-10.23,7.81-1.5,0,0,1.4-10.39,8.94-1.77,0,0-.2-9,5.53-2.74,0,0-2.79-15.51,7.38-5.26,0,0,0-14.81,9.33-.58C86.69,146.55,92.36,155.45,85.2,160.9Z"/><path class="c" d="M80.85,103.41c7.09-8.41,3.57-9.72,3.57-9.72-5-4.3-16.75-35.35-18.87-36.17-3-4.7-43.93-11.07-45.22-7-.92,19.38,16.9,20.36,16.9,20.36-6.67,9.85-10.46,15.39-8,18,4.91,4,12.71,1.44,24.26-5.39C50.64,90,49.9,94.56,52,96.7c2,2.39,12.27-2,13.93-5.29-.1-.22-.08-.32.12-.27a1.59,1.59,0,0,1-.12.27c.91,1.83,11.61,12,11.61,12C77.36,103.63,79.57,105.15,80.85,103.41Z"/><path class="d" d="M54.48,94.49c12-12.2,10.22-32.16,10.5-33.37,0,0-6.19,12.15-31.56,25.78"/><path class="d" d="M65,61.12s-23.43,2.93-35.59-3.26"/><path class="c" d="M177.34,53.67c-5.14,5-24.63,2.37-25.84,8.66S131.83,97.49,131,97.89c-1.95.86-1.2,10.23,4.7,7.87,8.13-1.59,15.22-13.21,15.22-13.21.28,1.42,7.9,2.94,10.54.61,1.6-1.61-.18-8.93-1.44-10.28l-.32-.22a.6.6,0,0,1,.32.22c5.25,3.45,13.94,4.09,17,.94,2.57-2.78.51-9.37-3.62-15.35C178.23,68.78,182.25,48.92,177.34,53.67Z"/><path class="d" d="M172.31,80.63c-9.56-1.41-16.84-15.86-16.84-15.86s-7.33,12.66,1.24,25"/><path class="d" d="M173.52,60.3s-1.86,5-18.05,4.47"/><path class="e" d="M133.73,93.38c23.87-12.13,4.59-30.9,4-30.29,5.64-19.25-4.23-27.24-3.29-27s17.62-11.51,9.87-16.2-16.21,10.8-16.21,10.8c-23-11.74-40.88,7-40.88,7-10.34-16.9-16-9.16-16-9.16-4,11.27,12.69,16.21,12.69,16.21-3.29,7,2.82,20,2.82,20-19.74,85.24-7,91.71,6.34,97.45,20.17,8.69,47,1.17,50.52-6.11,7.59-15.69,4.58-28.16-4.7-38.74C135.73,114.29,133.73,93.38,133.73,93.38Z"/><path class="f" d="M113.52,106.76S103,105.12,99,115c0,0-13.4,37.1,16.44,37.1S128.56,107,113.52,106.76Z"/><path class="b" d="M108.35,169.57s12,7.75,4.7,13.85-18.32-3.28-18.79-7-6.11-17.61,5.64-18.55S108.35,169.57,108.35,169.57Z"/><path class="g" d="M50.3,164.35"/><path class="b" d="M128.77,154.87c10.07-5.5,15.85,4,16,9.94,0,0,12.13,2.15,6.88,12.08s-16.95,1.65-20.46-1.15C131.17,175.74,122.57,158.25,128.77,154.87Z"/><path class="h" d="M145.48,77.7s-.71-21.89-29.37-19.31S87.44,76.47,87.68,79.53s2.58,18.55,31,16.9S145.48,77.7,145.48,77.7Z"/><path class="f" d="M99,115s15.85,2.65,23.54-3.25"/><path class="f" d="M97.08,121.32s17.38,3.76,29.36-4"/><path class="f" d="M96.14,127.9s15.5,5.16,33.59-4"/><path class="f" d="M96.06,134.7s12.11,6.65,35.46-3.95"/><path class="f" d="M97.5,141.55s8.79,6.37,34-2.94"/><path class="f" d="M103.24,149s8.64,5,25.74-2.64"/><path class="b" d="M122.6,115.79s-4.29-4.76,10.29-12.4c0,0,6.27-16,13.25-12.15s1.15,13.75-3.5,18.5S126,120.78,122.6,115.79Z"/><path class="b" d="M97,114.92s4.06-4.55-9.88-8.8c0,0-8.68-12.62-14.9-10.07s-2,14.53,4.51,17.62C79.13,114.53,94.54,121.58,97,114.92Z"/><path class="k" d="M75.7,33.5s3.76,6.34,6.57,5.88C85.56,38.67,75.23,30.45,75.7,33.5Z"/><path class="k" d="M140.07,24.11s-8.69,3.76-6.81,7.05C135.37,34.68,144.77,23.17,140.07,24.11Z"/><path class="d" d="M91.9,42.38S93.31,37,97.77,40"/><path class="d" d="M122.69,38.09s3.29-4,6.11,0"/><path class="l" d="M99,76.47s-6.58-3.75-1.41-8,8.22,5.17,8.22,5.17"/><path class="l" d="M129,74.6s2.82-8.46,8.22-3.29-3.05,7.75-3.05,7.75"/><ellipse class="k" cx="103.65" cy="74.36" rx="2.11" ry="1.41"/><ellipse class="k" cx="130.91" cy="75.18" rx="2.11" ry="1.53"/><path class="o" d="M108.5,53.5s-7-4-10.5,2.5"/><path class="o" d="M119,52s6-5,10,0"/><path class="p" d="M111.4,81h11c.45,0,.5.42.53.87C123,83,121.84,88,120,89a7.7,7.7,0,0,1-6,0c-1.21-.7-3-5-3.12-7.11C110.86,81.44,110.94,81,111.4,81Z"/></symbol><symbol id="c" viewBox="0 0 200 200"><rect class="a" width="200" height="200"/><path class="b" d="M90.69,164s-11.47,11.58-18.52,14.4c0,0-11.74,4.93-19,2.82s-2.11-7.75,2.12-4.7c0,0-3.53-9.63,6.57-4.46,0,0-2.81-10.1,7.52-5.17,0,0-3.76-8.21,4-4.69,0,0-8.7-13.15,4.7-7.75,0,0-5.87-13.6,8.34-4.22C86.39,150.21,95.12,156.15,90.69,164Z"/><path class="c" d="M80.87,103.24c3-10.56-.71-10.33-.71-10.33C73.82,91,50.48,67.44,48.21,67.55c-4.7-3-44.63,7.77-44.16,12C11.1,97.63,27.77,91.27,27.77,91.27c-2.08,11.7-3.29,18.31,0,19.72,6.11,1.64,12.19-3.86,20-14.79,0,7,1.25,11.56,4,12.68,2.84,1.35,10.39-6.83,10.58-10.51-.19-.15-.21-.26,0-.29a2.71,2.71,0,0,1,0,.29c1.57,1.3,15.5,6.28,15.5,6.28C77.76,104.87,80.4,105.36,80.87,103.24Z"/><path class="d" d="M53.14,105.82c6-16-3.75-33.53-4-34.75,0,0-.71,13.62-18.33,36.4"/><path class="d" d="M49.15,71.07S28.94,83.28,15.32,82.58"/><path class="c" d="M191.05,68.54c-6.4,3.2-24.2-5.16-27.25.47s-29.34,27.6-30.31,27.71c-2.11.23-4.23,9.39,2.12,8.92,8.22.94,18.49-8,18.49-8-.17,1.44,6.65,5.19,9.87,3.76,2-1,2.51-8.57,1.72-10.24l-.25-.3a.59.59,0,0,1,.25.3c4,4.88,12.05,8.11,16,6,3.29-1.88,3.3-8.78,1.17-15.73C187.34,83.21,197.16,65.49,191.05,68.54Z"/><path class="d" d="M178.13,92.73c-8.69-4.23-11.28-20.2-11.28-20.2s-10.8,9.87-6.34,24.19"/><path class="d" d="M185.42,73.71s-3.29,4.23-18.57-1.18"/><path class="e" d="M133.73,93.38c23.87-12.13,4.59-30.9,4-30.29,5.64-19.25-4.23-27.24-3.29-27s17.62-11.51,9.87-16.2-16.21,10.8-16.21,10.8c-23-11.74-40.88,7-40.88,7-10.34-16.9-16-9.16-16-9.16-4,11.27,12.69,16.21,12.69,16.21-3.29,7,2.82,20,2.82,20-19.74,85.24-7,91.71,6.34,97.45,20.17,8.69,47,1.17,50.52-6.11,7.59-15.69,4.58-28.16-4.7-38.74C135.73,114.29,133.73,93.38,133.73,93.38Z"/><path class="f" d="M113.52,106.76S103,105.12,99,115c0,0-13.4,37.1,16.44,37.1S128.56,107,113.52,106.76Z"/><path class="b" d="M108.35,171.57s12,7.75,4.7,13.85-18.32-3.28-18.79-7-6.11-17.61,5.64-18.55S108.35,171.57,108.35,171.57Z"/><path class="g" d="M50.3,164.35"/><path class="b" d="M136.6,155.6c-11.45-.76-12.69,10.33-10.34,15.74,0,0-10.1,7-1.17,13.85s16.08-5.62,18.09-9.63C143.18,175.56,143.65,156.07,136.6,155.6Z"/><path class="h" d="M145.48,77.7s-.71-21.89-29.37-19.31S87.44,76.47,87.68,79.53s2.58,18.55,31,16.9S145.48,77.7,145.48,77.7Z"/><path class="f" d="M99,115s15.85,2.65,23.54-3.25"/><path class="f" d="M97.08,121.32s17.38,3.76,29.36-4"/><path class="f" d="M96.14,127.9s15.5,5.16,33.59-4"/><path class="f" d="M96.06,134.7s12.11,6.65,35.46-3.95"/><path class="f" d="M97.5,141.55s8.79,6.37,34-2.94"/><path class="f" d="M103.24,149s8.64,5,25.74-2.64"/><path class="b" d="M87.21,104s5.64-3.06,9.63,12.91c0,0,14.1,9.86,8.69,15.73s-13.62-2.11-17.15-7.75S81.57,106.06,87.21,104Z"/><path class="b" d="M128.56,100.89s-5.41-2.81-6.11,11.74c0,0-10.1,11.51-6.11,16.91s14.57-1.64,16-8.69C132.55,118.27,135.61,101.6,128.56,100.89Z"/><path class="i" d="M104.36,39.38s-5.64,1.17-3,10.56,8.22,7.75,8.22,7.75,5.87-.24,3.29-11S101.78,40.31,104.36,39.38Z"/><path class="i" d="M121.75,37.73s-7-.47-5.88,10.1,8.93,8.92,8.93,8.92,4.23-1.41,2.58-11C126.21,37.5,121.75,37.73,121.75,37.73Z"/><path class="j" d="M104.19,55.72s-2.41-6.95,1.11-9.77,7.31-.09,7.31-.09,2.83,9.39-1.77,11.43A5.52,5.52,0,0,1,104.19,55.72Z"/><path class="j" d="M127.21,44.67s-2.88-4.12-6.87-1.3-1.54,11.56-1.54,11.56a7,7,0,0,0,6,1.82C129,54.87,127.5,45.74,127.21,44.67Z"/><path class="k" d="M75.7,33.5s3.76,6.34,6.57,5.88C85.56,38.67,75.23,30.45,75.7,33.5Z"/><path class="k" d="M140.07,24.11s-8.69,3.76-6.81,7.05C135.37,34.68,144.77,23.17,140.07,24.11Z"/><path class="m" d="M97,42.8a6.67,6.67,0,0,0,3.61-5.19"/><path class="m" d="M126.6,37.3s1.43,3.54,4.82,3.75"/><path class="l" d="M99,76.47s-6.58-3.75-1.41-8,8.22,5.17,8.22,5.17"/><path class="l" d="M129,74.6s2.82-8.46,8.22-3.29-3.05,7.75-3.05,7.75"/><path class="k" d="M109.29,49.94a3.75,3.75,0,0,0,0,5.4C112.35,57.69,111.41,48.3,109.29,49.94Z"/><path class="k" d="M123.15,48.53a3.43,3.43,0,0,0,0,4.93C125.74,55.11,125.27,46.65,123.15,48.53Z"/><ellipse class="k" cx="103.65" cy="74.36" rx="2.11" ry="1.41"/><ellipse class="k" cx="130.91" cy="75.18" rx="2.11" ry="1.53"/></symbol><symbol id="d" viewBox="0 0 200 200"><rect class="a" width="200" height="200"/><path class="b" d="M90.69,164s-11.47,11.58-18.52,14.4c0,0-11.74,4.93-19,2.82s-2.11-7.75,2.12-4.7c0,0-3.53-9.63,6.57-4.46,0,0-2.81-10.1,7.52-5.17,0,0-3.76-8.21,4-4.69,0,0-8.7-13.15,4.7-7.75,0,0-5.87-13.6,8.34-4.22C86.39,150.21,95.12,156.15,90.69,164Z"/><path class="c" d="M91.88,94.76c-6.26-9.05-8.46-6-8.46-6C78,92.5,44.93,95.67,43.58,97.5,38.24,99.21,21.38,137,25,139.3c18.46,6,24.07-11,24.07-11,7.76,9,12.12,14.13,15.29,12.47,5.13-3.7,4.72-11.89,1.16-24.83,5.49,4.42,9.75,6.34,12.35,4.92,2.83-1.34,1.28-12.36-1.46-14.83-.24,0-.33,0-.23-.19l.23.19c2-.4,14.67-8,14.67-8A2.19,2.19,0,0,0,91.88,94.76Z"/><path class="d" d="M76.35,117.87C67.71,103.14,48,99.59,46.9,99c0,0,10.11,9.15,16.62,37.2"/><path class="d" d="M46.9,99s-3.31,23.37-12.47,33.49"/><path class="c" d="M179.43,132.57c-5.35-4.76-4.17-24.39-10.53-25.14s-36.51-17-37-17.89c-1-1.88-10.29-.45-7.51,5.27,2.18,8,14.29,14.21,14.29,14.21-1.39.38-2.36,8.1.17,10.56,1.72,1.47,8.89-.84,10.14-2.2.07-.11.13-.22.19-.33a.63.63,0,0,1-.19.33c-3.06,5.49-3.06,14.2.31,17.07,3,2.36,9.38-.18,15-4.73C164.43,134.56,184.52,137.12,179.43,132.57Z"/><path class="d" d="M152.18,129.53c.7-9.64,14.58-18,14.58-18s-13.16-6.38-24.82,3.07"/><path class="d" d="M172.54,129.25s-5.14-1.49-5.78-17.68"/><path class="e" d="M133.73,93.38c23.87-12.13,4.59-30.9,4-30.29,5.64-19.25-4.23-27.24-3.29-27s17.62-11.51,9.87-16.2-16.21,10.8-16.21,10.8c-23-11.74-40.88,7-40.88,7-10.34-16.9-16-9.16-16-9.16-4,11.27,12.69,16.21,12.69,16.21-3.29,7,2.82,20,2.82,20-19.74,85.24-7,91.71,6.34,97.45,20.17,8.69,47,1.17,50.52-6.11,7.59-15.69,4.58-28.16-4.7-38.74C135.73,114.29,133.73,93.38,133.73,93.38Z"/><path class="n" d="M102.24,57s-2.54,2.53,0,3.8S102.24,57,102.24,57Z"/><path class="f" d="M113.52,106.76S103,105.12,99,115c0,0-13.4,37.1,16.44,37.1S128.56,107,113.52,106.76Z"/><path class="b" d="M108.35,171.57s12,7.75,4.7,13.85-18.32-3.28-18.79-7-6.11-17.61,5.64-18.55S108.35,171.57,108.35,171.57Z"/><path class="g" d="M50.3,164.35"/><path class="b" d="M136.6,155.6c-11.45-.76-12.69,10.33-10.34,15.74,0,0-10.1,7-1.17,13.85s16.08-5.62,18.09-9.63C143.18,175.56,143.65,156.07,136.6,155.6Z"/><path class="h" d="M145.48,77.7s-.71-21.89-29.37-19.31S87.44,76.47,87.68,79.53s2.58,18.55,31,16.9S145.48,77.7,145.48,77.7Z"/><path class="f" d="M99,115s15.85,2.65,23.54-3.25"/><path class="f" d="M97.08,121.32s17.38,3.76,29.36-4"/><path class="f" d="M96.14,127.9s15.5,5.16,33.59-4"/><path class="f" d="M96.06,134.7s12.11,6.65,35.46-3.95"/><path class="f" d="M97.5,141.55s8.79,6.37,34-2.94"/><path class="f" d="M103.24,149s8.64,5,25.74-2.64"/><path class="b" d="M87.21,104s5.64-3.06,9.63,12.91c0,0,14.1,9.86,8.69,15.73s-13.62-2.11-17.15-7.75S81.57,106.06,87.21,104Z"/><path class="b" d="M128.56,100.89s-5.41-2.81-6.11,11.74c0,0-10.1,11.51-6.11,16.91s14.57-1.64,16-8.69C132.55,118.27,135.61,101.6,128.56,100.89Z"/><path class="i" d="M104.36,39.38s-5.64,1.17-3,10.56,8.22,7.75,8.22,7.75,5.87-.24,3.29-11S101.78,40.31,104.36,39.38Z"/><path class="i" d="M121.75,37.73s-7-.47-5.88,10.1,8.93,8.92,8.93,8.92,4.23-1.41,2.58-11C126.21,37.5,121.75,37.73,121.75,37.73Z"/><path class="j" d="M104.19,55.72s-2.41-6.95,1.11-9.77,7.31-.09,7.31-.09,2.83,9.39-1.77,11.43A5.52,5.52,0,0,1,104.19,55.72Z"/><path class="j" d="M127.21,44.67s-2.88-4.12-6.87-1.3-1.54,11.56-1.54,11.56a7,7,0,0,0,6,1.82C129,54.87,127.5,45.74,127.21,44.67Z"/><path class="k" d="M75.7,33.5s3.76,6.34,6.57,5.88C85.56,38.67,75.23,30.45,75.7,33.5Z"/><path class="k" d="M140.07,24.11s-8.69,3.76-6.81,7.05C135.37,34.68,144.77,23.17,140.07,24.11Z"/><path class="d" d="M98,42.8a6.67,6.67,0,0,0,3.61-5.19"/><path class="d" d="M124.6,36.3s1.43,3.54,4.82,3.75"/><path class="l" d="M99,76.47s-6.58-3.75-1.41-8,8.22,5.17,8.22,5.17"/><path class="l" d="M129,74.6s2.82-8.46,8.22-3.29-3.05,7.75-3.05,7.75"/><path class="k" d="M109.29,49.94a3.75,3.75,0,0,0,0,5.4C112.35,57.69,111.41,48.3,109.29,49.94Z"/><path class="k" d="M123.15,48.53a3.43,3.43,0,0,0,0,4.93C125.74,55.11,125.27,46.65,123.15,48.53Z"/><ellipse class="k" cx="103.65" cy="74.36" rx="2.11" ry="1.41"/><ellipse class="k" cx="130.91" cy="75.18" rx="2.11" ry="1.53"/></symbol><symbol id="e" viewBox="0 0 200 200"><rect class="a" width="200" height="200"/><path class="b" d="M71.82,159.88S58.12,168.72,50.63,170c0,0-12.53,2.29-19.19-1.34s-.4-8,3.08-4.13c0,0-1.38-10.16,7.38-2.94,0,0-.58-10.47,8.45-3.43,0,0-1.9-8.84,4.91-3.73,0,0-5.66-14.71,6.26-6.56,0,0-2.81-14.53,9-2.32C70.57,145.51,77.82,153.18,71.82,159.88Z"/><path class="c" d="M86.11,91.5C83.37,80.85,80.25,83,80.25,83c-6.42,1.6-38.5-6.88-40.4-5.63-5.6-.24-34.51,29.35-32,32.75,15.25,12,26.39-1.94,26.39-1.94,4.15,11.14,6.46,17.45,10,17,6.1-1.68,8.55-9.51,9.7-22.88,3.62,6,6.95,9.32,9.88,8.9,3.12-.28,5.48-11.16,3.77-14.42-.24,0-.3-.12-.15-.26a2.2,2.2,0,0,1,.15.26c2,.32,16.55-2.46,16.55-2.46C84.26,94.48,86.77,93.56,86.11,91.5Z"/><path class="d" d="M63.53,107.8c-3-16.81-20.26-27-21.08-27.91,0,0,6.31,12.09,2.69,40.66"/><path class="d" d="M42.45,79.89S31.24,100.67,19.14,107"/><path class="c" d="M170.24,139.32c-5-5.09-2.62-24.61-8.93-25.75s-35.37-19.3-35.77-20.18c-.88-1.93-10.24-1.09-7.82,4.79,1.67,8.11,13.37,15.08,13.37,15.08-1.41.29-2.86,7.93-.5,10.55,1.63,1.57,8.93-.29,10.27-1.56l.21-.32a.57.57,0,0,1-.21.32c-3.4,5.29-4,14-.77,17.06,2.81,2.54,9.38.4,15.32-3.78C155.15,140.36,175.05,144.17,170.24,139.32Z"/><path class="d" d="M143.24,134.57c1.31-9.58,15.67-17,15.67-17s-12.73-7.19-24.95,1.51"/><path class="d" d="M163.58,135.57s-5-1.81-4.67-18"/><path class="e" d="M129,100.18c25.92-6.72,11.13-29.2,10.41-28.73,9.64-17.59,1.72-27.51,2.59-27.08s19.68-7.45,13.12-13.7S137,37.74,137,37.74c-20-16.42-41.44-1.91-41.44-1.91C89.08,17.1,81.91,23.45,81.91,23.45,75.59,33.6,90.82,42,90.82,42c-4.73,6.18-1.54,20.1-1.54,20.1-37.59,79-26.51,88.07-14.74,96.53,17.83,12.82,45.64,11.25,50.64,4.89,10.8-13.69,10.53-26.51,3.74-38.84C126.48,121,129,100.18,129,100.18Z"/><path class="f" d="M106.41,108.9s-10-3.87-16,4.9c0,0-21,33.35,8.09,39.77S121,112.37,106.41,108.9Z"/><path class="b" d="M118.77,169.38s14.16,1.76,10.26,10.42-17.93,5-20,1.84S94.83,166,105,160,118.77,169.38,118.77,169.38Z"/><path class="g" d="M32.28,151.56"/><path class="b" d="M86.08,154c10.54,4.55,6.58,15,2,18.72,0,0,5.78,10.87-5.27,12.86S71.08,173.29,71.12,168.8C71.12,168.8,79.59,151.24,86.08,154Z"/><path class="h" d="M143.86,87.39s4-21.53-24.53-25.17S87.45,73.72,87,76.75s-1.46,18.67,26.66,23.18S143.86,87.39,143.86,87.39Z"/><path class="f" d="M90.42,113.8s14.91,6,23.7,1.88"/><path class="f" d="M87.22,119.59s16.17,7.4,29.54,2.41"/><path class="f" d="M84.89,125.81s14,8.37,33.67,3.32"/><path class="f" d="M83.35,132.44s10.4,9.09,35.48,3.76"/><path class="f" d="M83.29,139.44s7.21,8.11,33.85,4.44"/><path class="f" d="M87.3,147.91s7.36,6.73,25.71,3"/><path class="b" d="M81.32,100.5s6.16-1.77,6.63,14.68c0,0,11.65,12.66,5.11,17.23s-12.86-5-15.09-11.25S75.36,101.35,81.32,100.5Z"/><path class="b" d="M122.36,106.4s-4.68-3.91-8.49,10.16c0,0-12.34,9.06-9.6,15.19s14.58,1.53,17.47-5C122.52,124.23,129.09,108.61,122.36,106.4Z"/><path class="i" d="M111.94,41.12s-5.76-.06-5.25,9.66,6.37,9.34,6.37,9.34,5.78,1,5.58-10.07S109.22,41.48,111.94,41.12Z"/><path class="i" d="M129.28,43.25s-6.79-2-7.91,8.6,6.8,10.63,6.8,10.63,4.43-.46,4.9-10.22C133.69,44,129.28,43.25,129.28,43.25Z"/><path class="j" d="M108.26,57.05s-.86-7.31,3.19-9.31,7.16,1.48,7.16,1.48S119.36,59,114.42,60A5.53,5.53,0,0,1,108.26,57.05Z"/><path class="j" d="M133.12,51.21s-1.93-4.65-6.43-2.76-4,11-4,11a7,7,0,0,0,5.46,3.06C132.71,61.56,133.18,52.32,133.12,51.21Z"/><path class="k" d="M85.21,29.23s2.31,7,5.16,7.15C93.74,36.39,85.41,26.15,85.21,29.23Z"/><path class="k" d="M150.1,33.89s-9.3,1.8-8.17,5.42C143.24,43.2,154.89,34,150.1,33.89Z"/><path class="l" d="M98.69,76.19s-5.61-5.08.34-8.1S106,74.9,106,74.9"/><path class="l" d="M128.47,80.82s4.57-7.65,8.73-1.44-4.64,6.91-4.64,6.91"/><path class="k" d="M114.49,52.5a3.75,3.75,0,0,0-1.16,5.28C115.81,60.72,116.91,51.35,114.49,52.5Z"/><path class="k" d="M128.33,54.1s-2.75,1.56-1.06,4.82C129.44,61.08,130.8,52.72,128.33,54.1Z"/><ellipse class="k" cx="103.74" cy="75.14" rx="1.41" ry="2.11" transform="translate(8.06 160.3) rotate(-77.59)"/><ellipse class="k" cx="130.18" cy="81.8" rx="1.53" ry="2.11" transform="translate(22.31 191.35) rotate(-77.59)"/><path class="d" d="M107,40s0,5-4,5"/><path class="d" d="M134,44s0,5,3,5"/></symbol><symbol id="f" viewBox="0 0 200 200"><rect class="a" width="200" height="200"/><path class="b" d="M71.82,159.88S58.12,168.72,50.63,170c0,0-12.53,2.29-19.19-1.34s-.4-8,3.08-4.13c0,0-1.38-10.16,7.38-2.94,0,0-.58-10.47,8.45-3.43,0,0-1.9-8.84,4.91-3.73,0,0-5.66-14.71,6.26-6.56,0,0-2.81-14.53,9-2.32C70.57,145.51,77.82,153.18,71.82,159.88Z"/><path class="c" d="M86.11,91.5C83.37,80.85,80.25,83,80.25,83c-6.42,1.6-38.5-6.88-40.4-5.63-5.6-.24-34.51,29.35-32,32.75,15.25,12,26.39-1.94,26.39-1.94,4.15,11.14,6.46,17.45,10,17,6.1-1.68,8.55-9.51,9.7-22.88,3.62,6,6.95,9.32,9.88,8.9,3.12-.28,5.48-11.16,3.77-14.42-.24,0-.3-.12-.15-.26a2.2,2.2,0,0,1,.15.26c2,.32,16.55-2.46,16.55-2.46C84.26,94.48,86.77,93.56,86.11,91.5Z"/><path class="d" d="M63.53,107.8c-3-16.81-20.26-27-21.08-27.91,0,0,6.31,12.09,2.69,40.66"/><path class="d" d="M42.45,79.89S31.24,100.67,19.14,107"/><path class="c" d="M170.24,139.32c-5-5.09-2.62-24.61-8.93-25.75s-35.37-19.3-35.77-20.18c-.88-1.93-10.24-1.09-7.82,4.79,1.67,8.11,13.37,15.08,13.37,15.08-1.41.29-2.86,7.93-.5,10.55,1.63,1.57,8.93-.29,10.27-1.56l.21-.32a.57.57,0,0,1-.21.32c-3.4,5.29-4,14-.77,17.06,2.81,2.54,9.38.4,15.32-3.78C155.15,140.36,175.05,144.17,170.24,139.32Z"/><path class="d" d="M143.24,134.57c1.31-9.58,15.67-17,15.67-17s-12.73-7.19-24.95,1.51"/><path class="d" d="M163.58,135.57s-5-1.81-4.67-18"/><path class="e" d="M129,100.18c25.92-6.72,11.13-29.2,10.41-28.73,9.64-17.59,1.72-27.51,2.59-27.08s19.68-7.45,13.12-13.7S137,37.74,137,37.74c-20-16.42-41.44-1.91-41.44-1.91C89.08,17.1,81.91,23.45,81.91,23.45,75.59,33.6,90.82,42,90.82,42c-4.73,6.18-1.54,20.1-1.54,20.1-37.59,79-26.51,88.07-14.74,96.53,17.83,12.82,45.64,11.25,50.64,4.89,10.8-13.69,10.53-26.51,3.74-38.84C126.48,121,129,100.18,129,100.18Z"/><path class="f" d="M106.41,108.9s-10-3.87-16,4.9c0,0-21,33.35,8.09,39.77S121,112.37,106.41,108.9Z"/><path class="b" d="M118.77,165.38s14.16,1.76,10.26,10.42-17.93,5-20,1.84S94.83,162,105,156,118.77,165.38,118.77,165.38Z"/><path class="g" d="M32.28,151.56"/><path class="b" d="M81.31,153.87c11.46.6,11.37,11.76,8.4,16.85,0,0,9.2,8.19-.48,13.89s-15.3-7.48-16.82-11.7C72.41,172.91,74.26,153.5,81.31,153.87Z"/><path class="h" d="M143.86,87.39s4-21.53-24.53-25.17S87.45,73.72,87,76.75s-1.46,18.67,26.66,23.18S143.86,87.39,143.86,87.39Z"/><path class="f" d="M90.42,113.8s14.91,6,23.7,1.88"/><path class="f" d="M87.22,119.59s16.17,7.4,29.54,2.41"/><path class="f" d="M84.89,125.81s14,8.37,33.67,3.32"/><path class="f" d="M83.35,132.44s10.4,9.09,35.48,3.76"/><path class="f" d="M83.29,139.44s7.21,8.11,33.85,4.44"/><path class="f" d="M87.3,147.91s7.36,6.73,25.71,3"/><path class="b" d="M81.32,100.5s6.16-1.77,6.63,14.68c0,0,11.65,12.66,5.11,17.23s-12.86-5-15.09-11.25S75.36,101.35,81.32,100.5Z"/><path class="b" d="M122.36,106.4s-4.68-3.91-8.49,10.16c0,0-12.34,9.06-9.6,15.19s14.58,1.53,17.47-5C122.52,124.23,129.09,108.61,122.36,106.4Z"/><path class="i" d="M111.94,41.12s-5.76-.06-5.25,9.66,6.37,9.34,6.37,9.34,5.78,1,5.58-10.07S109.22,41.48,111.94,41.12Z"/><path class="i" d="M129.28,43.25s-6.79-2-7.91,8.6,6.8,10.63,6.8,10.63,4.43-.46,4.9-10.22C133.69,44,129.28,43.25,129.28,43.25Z"/><path class="j" d="M108.26,57.05s-.86-7.31,3.19-9.31,7.16,1.48,7.16,1.48S119.36,59,114.42,60A5.53,5.53,0,0,1,108.26,57.05Z"/><path class="j" d="M133.12,51.21s-1.93-4.65-6.43-2.76-4,11-4,11a7,7,0,0,0,5.46,3.06C132.71,61.56,133.18,52.32,133.12,51.21Z"/><path class="k" d="M85.21,29.23s2.31,7,5.16,7.15C93.74,36.39,85.41,26.15,85.21,29.23Z"/><path class="k" d="M150.1,33.89s-9.3,1.8-8.17,5.42C143.24,43.2,154.89,34,150.1,33.89Z"/><path class="l" d="M98.69,76.19s-5.61-5.08.34-8.1S106,74.9,106,74.9"/><path class="l" d="M128.47,80.82s4.57-7.65,8.73-1.44-4.64,6.91-4.64,6.91"/><path class="k" d="M114.49,52.5a3.75,3.75,0,0,0-1.16,5.28C115.81,60.72,116.91,51.35,114.49,52.5Z"/><path class="k" d="M128.33,54.1s-2.75,1.56-1.06,4.82C129.44,61.08,130.8,52.72,128.33,54.1Z"/><ellipse class="k" cx="103.74" cy="75.14" rx="1.41" ry="2.11" transform="translate(8.06 160.3) rotate(-77.59)"/><ellipse class="k" cx="130.18" cy="81.8" rx="1.53" ry="2.11" transform="translate(22.31 191.35) rotate(-77.59)"/><path class="d" d="M107,40s0,5-4,5"/><path class="d" d="M134,44s0,5,3,5"/></symbol><symbol id="g" viewBox="0 0 200 200"><rect class="a" width="200" height="200"/><path class="b" d="M71.82,159.88S58.12,168.72,50.63,170c0,0-12.53,2.29-19.19-1.34s-.4-8,3.08-4.13c0,0-1.38-10.16,7.38-2.94,0,0-.58-10.47,8.45-3.43,0,0-1.9-8.84,4.91-3.73,0,0-5.66-14.71,6.26-6.56,0,0-2.81-14.53,9-2.32C70.57,145.51,77.82,153.18,71.82,159.88Z"/><path class="c" d="M86.11,91.5C83.37,80.85,80.25,83,80.25,83c-6.42,1.6-38.5-6.88-40.4-5.63-5.6-.24-34.51,29.35-32,32.75,15.25,12,26.39-1.94,26.39-1.94,4.15,11.14,6.46,17.45,10,17,6.1-1.68,8.55-9.51,9.7-22.88,3.62,6,6.95,9.32,9.88,8.9,3.12-.28,5.48-11.16,3.77-14.42-.24,0-.3-.12-.15-.26a2.2,2.2,0,0,1,.15.26c2,.32,16.55-2.46,16.55-2.46C84.26,94.48,86.77,93.56,86.11,91.5Z"/><path class="d" d="M63.53,107.8c-3-16.81-20.26-27-21.08-27.91,0,0,6.31,12.09,2.69,40.66"/><path class="d" d="M42.45,79.89S31.24,100.67,19.14,107"/><path class="c" d="M170.24,139.32c-5-5.09-2.62-24.61-8.93-25.75s-35.37-19.3-35.77-20.18c-.88-1.93-10.24-1.09-7.82,4.79,1.67,8.11,13.37,15.08,13.37,15.08-1.41.29-2.86,7.93-.5,10.55,1.63,1.57,8.93-.29,10.27-1.56l.21-.32a.57.57,0,0,1-.21.32c-3.4,5.29-4,14-.77,17.06,2.81,2.54,9.38.4,15.32-3.78C155.15,140.36,175.05,144.17,170.24,139.32Z"/><path class="d" d="M143.24,134.57c1.31-9.58,15.67-17,15.67-17s-12.73-7.19-24.95,1.51"/><path class="d" d="M163.58,135.57s-5-1.81-4.67-18"/><path class="e" d="M129,100.18c25.92-6.72,11.13-29.2,10.41-28.73,9.64-17.59,1.72-27.51,2.59-27.08s19.68-7.45,13.12-13.7S137,37.74,137,37.74c-20-16.42-41.44-1.91-41.44-1.91C89.08,17.1,81.91,23.45,81.91,23.45,75.59,33.6,90.82,42,90.82,42c-4.73,6.18-1.54,20.1-1.54,20.1-37.59,79-26.51,88.07-14.74,96.53,17.83,12.82,45.64,11.25,50.64,4.89,10.8-13.69,10.53-26.51,3.74-38.84C126.48,121,129,100.18,129,100.18Z"/><path class="f" d="M106.41,108.9s-10-3.87-16,4.9c0,0-21,33.35,8.09,39.77S121,112.37,106.41,108.9Z"/><path class="b" d="M108.89,174.37s-.88,14.25-9.77,10.89S93,167.68,96,165.43s14.77-15.16,21.35-5.38S108.89,174.37,108.89,174.37Z"/><path class="g" d="M32.28,151.56"/><path class="b" d="M77,158c8.83-7.32,17.32,3.72,18.58,9.48,0,0,12.32-.21,9.06,10.54s-16.32,4.87-20.3,2.79C84.34,180.81,71.56,162.51,77,158Z"/><path class="h" d="M143.86,87.39s4-21.53-24.53-25.17S87.45,73.72,87,76.75s-1.46,18.67,26.66,23.18S143.86,87.39,143.86,87.39Z"/><path class="f" d="M90.42,113.8s14.91,6,23.7,1.88"/><path class="f" d="M87.22,119.59s16.17,7.4,29.54,2.41"/><path class="f" d="M84.89,125.81s14,8.37,33.67,3.32"/><path class="f" d="M83.35,132.44s10.4,9.09,35.48,3.76"/><path class="f" d="M83.29,139.44s7.21,8.11,33.85,4.44"/><path class="f" d="M87.3,147.91s7.36,6.73,25.71,3"/><path class="b" d="M81.32,100.5s6.16-1.77,6.63,14.68c0,0,11.65,12.66,5.11,17.23s-12.86-5-15.09-11.25S75.36,101.35,81.32,100.5Z"/><path class="b" d="M122.36,106.4s-4.68-3.91-8.49,10.16c0,0-12.34,9.06-9.6,15.19s14.58,1.53,17.47-5C122.52,124.23,129.09,108.61,122.36,106.4Z"/><path class="i" d="M111.94,41.12s-5.76-.06-5.25,9.66,6.37,9.34,6.37,9.34,5.78,1,5.58-10.07S109.22,41.48,111.94,41.12Z"/><path class="i" d="M129.28,43.25s-6.79-2-7.91,8.6,6.8,10.63,6.8,10.63,4.43-.46,4.9-10.22C133.69,44,129.28,43.25,129.28,43.25Z"/><path class="j" d="M108.26,57.05s-.86-7.31,3.19-9.31,7.16,1.48,7.16,1.48S119.36,59,114.42,60A5.53,5.53,0,0,1,108.26,57.05Z"/><path class="j" d="M133.12,51.21s-1.93-4.65-6.43-2.76-4,11-4,11a7,7,0,0,0,5.46,3.06C132.71,61.56,133.18,52.32,133.12,51.21Z"/><path class="k" d="M85.21,29.23s2.31,7,5.16,7.15C93.74,36.39,85.41,26.15,85.21,29.23Z"/><path class="k" d="M150.1,33.89s-9.3,1.8-8.17,5.42C143.24,43.2,154.89,34,150.1,33.89Z"/><path class="l" d="M98.69,76.19s-5.61-5.08.34-8.1S106,74.9,106,74.9"/><path class="l" d="M128.47,80.82s4.57-7.65,8.73-1.44-4.64,6.91-4.64,6.91"/><path class="k" d="M114.49,52.5a3.75,3.75,0,0,0-1.16,5.28C115.81,60.72,116.91,51.35,114.49,52.5Z"/><path class="k" d="M128.33,54.1s-2.75,1.56-1.06,4.82C129.44,61.08,130.8,52.72,128.33,54.1Z"/><ellipse class="k" cx="103.74" cy="75.14" rx="1.41" ry="2.11" transform="translate(8.06 160.3) rotate(-77.59)"/><ellipse class="k" cx="130.18" cy="81.8" rx="1.53" ry="2.11" transform="translate(22.31 191.35) rotate(-77.59)"/><path class="d" d="M107,40s0,5-4,5"/><path class="d" d="M134,44s0,5,3,5"/></symbol><symbol id="h" viewBox="0 0 200 200"><rect class="a" width="200" height="200"/><path class="b" d="M71.82,159.88S58.12,168.72,50.63,170c0,0-12.53,2.29-19.19-1.34s-.4-8,3.08-4.13c0,0-1.38-10.16,7.38-2.94,0,0-.58-10.47,8.45-3.43,0,0-1.9-8.84,4.91-3.73,0,0-5.66-14.71,6.26-6.56,0,0-2.81-14.53,9-2.32C70.57,145.51,77.82,153.18,71.82,159.88Z"/><path class="c" d="M86.11,91.5C83.37,80.85,80.25,83,80.25,83c-6.42,1.6-38.5-6.88-40.4-5.63-5.6-.24-34.51,29.35-32,32.75,15.25,12,26.39-1.94,26.39-1.94,4.15,11.14,6.46,17.45,10,17,6.1-1.68,8.55-9.51,9.7-22.88,3.62,6,6.95,9.32,9.88,8.9,3.12-.28,5.48-11.16,3.77-14.42-.24,0-.3-.12-.15-.26a2.2,2.2,0,0,1,.15.26c2,.32,16.55-2.46,16.55-2.46C84.26,94.48,86.77,93.56,86.11,91.5Z"/><path class="d" d="M63.53,107.8c-3-16.81-20.26-27-21.08-27.91,0,0,6.31,12.09,2.69,40.66"/><path class="d" d="M42.45,79.89S31.24,100.67,19.14,107"/><path class="c" d="M170.24,139.32c-5-5.09-2.62-24.61-8.93-25.75s-35.37-19.3-35.77-20.18c-.88-1.93-10.24-1.09-7.82,4.79,1.67,8.11,13.37,15.08,13.37,15.08-1.41.29-2.86,7.93-.5,10.55,1.63,1.57,8.93-.29,10.27-1.56l.21-.32a.57.57,0,0,1-.21.32c-3.4,5.29-4,14-.77,17.06,2.81,2.54,9.38.4,15.32-3.78C155.15,140.36,175.05,144.17,170.24,139.32Z"/><path class="d" d="M143.24,134.57c1.31-9.58,15.67-17,15.67-17s-12.73-7.19-24.95,1.51"/><path class="d" d="M163.58,135.57s-5-1.81-4.67-18"/><path class="e" d="M129,100.18c25.92-6.72,11.13-29.2,10.41-28.73,9.64-17.59,1.72-27.51,2.59-27.08s19.68-7.45,13.12-13.7S137,37.74,137,37.74c-20-16.42-41.44-1.91-41.44-1.91C89.08,17.1,81.91,23.45,81.91,23.45,75.59,33.6,90.82,42,90.82,42c-4.73,6.18-1.54,20.1-1.54,20.1-37.59,79-26.51,88.07-14.74,96.53,17.83,12.82,45.64,11.25,50.64,4.89,10.8-13.69,10.53-26.51,3.74-38.84C126.48,121,129,100.18,129,100.18Z"/><path class="f" d="M106.41,108.9s-10-3.87-16,4.9c0,0-21,33.35,8.09,39.77S121,112.37,106.41,108.9Z"/><path class="b" d="M113,173.08s4.57,13.52-4.93,13.77-12.31-14-10.34-17.21,8-19.61,17.74-13S113,173.08,113,173.08Z"/><path class="g" d="M32.28,151.56"/><path class="b" d="M79.74,156.09C90,151,95.4,160.82,95.28,166.71c0,0,12,2.68,6.35,12.37s-17,.92-20.39-2C81.24,177.05,73.4,159.2,79.74,156.09Z"/><path class="h" d="M143.86,87.39s4-21.53-24.53-25.17S87.45,73.72,87,76.75s-1.46,18.67,26.66,23.18S143.86,87.39,143.86,87.39Z"/><path class="f" d="M90.42,113.8s14.91,6,23.7,1.88"/><path class="f" d="M87.22,119.59s16.17,7.4,29.54,2.41"/><path class="f" d="M84.89,125.81s14,8.37,33.67,3.32"/><path class="f" d="M83.35,132.44s10.4,9.09,35.48,3.76"/><path class="f" d="M83.29,139.44s7.21,8.11,33.85,4.44"/><path class="f" d="M87.3,147.91s7.36,6.73,25.71,3"/><path class="b" d="M81.32,100.5s6.16-1.77,6.63,14.68c0,0,11.65,12.66,5.11,17.23s-12.86-5-15.09-11.25S75.36,101.35,81.32,100.5Z"/><path class="b" d="M122.36,106.4s-4.68-3.91-8.49,10.16c0,0-12.34,9.06-9.6,15.19s14.58,1.53,17.47-5C122.52,124.23,129.09,108.61,122.36,106.4Z"/><path class="i" d="M111.94,41.12s-5.76-.06-5.25,9.66,6.37,9.34,6.37,9.34,5.78,1,5.58-10.07S109.22,41.48,111.94,41.12Z"/><path class="i" d="M129.28,43.25s-6.79-2-7.91,8.6,6.8,10.63,6.8,10.63,4.43-.46,4.9-10.22C133.69,44,129.28,43.25,129.28,43.25Z"/><path class="j" d="M108.26,57.05s-.86-7.31,3.19-9.31,7.16,1.48,7.16,1.48S119.36,59,114.42,60A5.53,5.53,0,0,1,108.26,57.05Z"/><path class="j" d="M133.12,51.21s-1.93-4.65-6.43-2.76-4,11-4,11a7,7,0,0,0,5.46,3.06C132.71,61.56,133.18,52.32,133.12,51.21Z"/><path class="k" d="M85.21,29.23s2.31,7,5.16,7.15C93.74,36.39,85.41,26.15,85.21,29.23Z"/><path class="k" d="M150.1,33.89s-9.3,1.8-8.17,5.42C143.24,43.2,154.89,34,150.1,33.89Z"/><path class="l" d="M98.69,76.19s-5.61-5.08.34-8.1S106,74.9,106,74.9"/><path class="l" d="M128.47,80.82s4.57-7.65,8.73-1.44-4.64,6.91-4.64,6.91"/><path class="k" d="M114.49,52.5a3.75,3.75,0,0,0-1.16,5.28C115.81,60.72,116.91,51.35,114.49,52.5Z"/><path class="k" d="M128.33,54.1s-2.75,1.56-1.06,4.82C129.44,61.08,130.8,52.72,128.33,54.1Z"/><ellipse class="k" cx="103.74" cy="75.14" rx="1.41" ry="2.11" transform="translate(8.06 160.3) rotate(-77.59)"/><ellipse class="k" cx="130.18" cy="81.8" rx="1.53" ry="2.11" transform="translate(22.31 191.35) rotate(-77.59)"/><path class="d" d="M107,40s0,5-4,5"/><path class="d" d="M134,44s0,5,3,5"/></symbol><symbol id="j" viewBox="0 0 200 200"><rect class="a" width="200" height="200"/><path class="b" d="M90.69,164s-11.47,11.58-18.52,14.4c0,0-11.74,4.93-19,2.82s-2.11-7.75,2.12-4.7c0,0-3.53-9.63,6.57-4.46,0,0-2.81-10.1,7.52-5.17,0,0-3.76-8.21,4-4.69,0,0-8.7-13.15,4.7-7.75,0,0-5.87-13.6,8.34-4.22C86.39,150.21,95.12,156.15,90.69,164Z"/><path class="c" d="M80.85,103.41c7.09-8.41,3.57-9.72,3.57-9.72-5-4.3-16.75-35.35-18.87-36.17-3-4.7-43.93-11.07-45.22-7-.92,19.38,16.9,20.36,16.9,20.36-6.67,9.85-10.46,15.39-8,18,4.91,4,12.71,1.44,24.26-5.39C50.64,90,49.9,94.56,52,96.7c2,2.39,12.27-2,13.93-5.29-.1-.22-.08-.32.12-.27a1.59,1.59,0,0,1-.12.27c.91,1.83,11.61,12,11.61,12C77.36,103.63,79.57,105.15,80.85,103.41Z"/><path class="d" d="M54.48,94.49c12-12.2,10.22-32.16,10.5-33.37,0,0-6.19,12.15-31.56,25.78"/><path class="d" d="M65,61.12s-23.43,2.93-35.59-3.26"/><path class="c" d="M177.34,53.67c-5.14,5-24.63,2.37-25.84,8.66S131.83,97.49,131,97.89c-1.95.86-1.2,10.23,4.7,7.87,8.13-1.59,15.22-13.21,15.22-13.21.28,1.42,7.9,2.94,10.54.61,1.6-1.61-.18-8.93-1.44-10.28l-.32-.22a.6.6,0,0,1,.32.22c5.25,3.45,13.94,4.09,17,.94,2.57-2.78.51-9.37-3.62-15.35C178.23,68.78,182.25,48.92,177.34,53.67Z"/><path class="d" d="M172.31,80.63c-9.56-1.41-16.84-15.86-16.84-15.86s-7.33,12.66,1.24,25"/><path class="d" d="M173.52,60.3s-1.86,5-18.05,4.47"/><path class="e" d="M133.73,93.38c23.87-12.13,4.59-30.9,4-30.29,5.64-19.25-4.23-27.24-3.29-27s17.62-11.51,9.87-16.2-16.21,10.8-16.21,10.8c-23-11.74-40.88,7-40.88,7-10.34-16.9-16-9.16-16-9.16-4,11.27,12.69,16.21,12.69,16.21-3.29,7,2.82,20,2.82,20-19.74,85.24-7,91.71,6.34,97.45,20.17,8.69,47,1.17,50.52-6.11,7.59-15.69,4.58-28.16-4.7-38.74C135.73,114.29,133.73,93.38,133.73,93.38Z"/><path class="f" d="M113.52,106.76S103,105.12,99,115c0,0-13.4,37.1,16.44,37.1S128.56,107,113.52,106.76Z"/><path class="b" d="M108.35,169.57s12,7.75,4.7,13.85-18.32-3.28-18.79-7-6.11-17.61,5.64-18.55S108.35,169.57,108.35,169.57Z"/><path class="g" d="M50.3,164.35"/><path class="b" d="M128.77,154.87c10.07-5.5,15.85,4,16,9.94,0,0,12.13,2.15,6.88,12.08s-16.95,1.65-20.46-1.15C131.17,175.74,122.57,158.25,128.77,154.87Z"/><path class="h" d="M145.48,77.7s-.71-21.89-29.37-19.31S87.44,76.47,87.68,79.53s2.58,18.55,31,16.9S145.48,77.7,145.48,77.7Z"/><path class="f" d="M99,115s15.85,2.65,23.54-3.25"/><path class="f" d="M97.08,121.32s17.38,3.76,29.36-4"/><path class="f" d="M96.14,127.9s15.5,5.16,33.59-4"/><path class="f" d="M96.06,134.7s12.11,6.65,35.46-3.95"/><path class="f" d="M97.5,141.55s8.79,6.37,34-2.94"/><path class="f" d="M103.24,149s8.64,5,25.74-2.64"/><path class="b" d="M122.6,115.79s-4.29-4.76,10.29-12.4c0,0,6.27-16,13.25-12.15s1.15,13.75-3.5,18.5S126,120.78,122.6,115.79Z"/><path class="b" d="M97,114.92s4.06-4.55-9.88-8.8c0,0-8.68-12.62-14.9-10.07s-2,14.53,4.51,17.62C79.13,114.53,94.54,121.58,97,114.92Z"/><path class="k" d="M75.7,33.5s3.76,6.34,6.57,5.88C85.56,38.67,75.23,30.45,75.7,33.5Z"/><path class="k" d="M140.07,24.11s-8.69,3.76-6.81,7.05C135.37,34.68,144.77,23.17,140.07,24.11Z"/><path class="d" d="M93.67,43.89s-2.44-5,2.94-5.6"/><path class="d" d="M122.88,35.83S128,35,127.43,39.9"/><path class="l" d="M99,76.47s-6.58-3.75-1.41-8,8.22,5.17,8.22,5.17"/><path class="l" d="M129,74.6s2.82-8.46,8.22-3.29-3.05,7.75-3.05,7.75"/><ellipse class="k" cx="103.65" cy="74.36" rx="2.11" ry="1.41"/><ellipse class="k" cx="130.91" cy="75.18" rx="2.11" ry="1.53"/><path class="p" d="M111.4,81h11c.45,0,.5.42.53.87C123,83,121.84,88,120,89a7.7,7.7,0,0,1-6,0c-1.21-.7-3-5-3.12-7.11C110.86,81.44,110.94,81,111.4,81Z"/><path class="i" d="M102.36,40.38s-5.64,1.17-3,10.56,8.22,7.75,8.22,7.75,5.87-.24,3.29-11S99.78,41.31,102.36,40.38Z"/><path class="i" d="M119.75,38.73s-7-.47-5.88,10.1,8.93,8.92,8.93,8.92,4.23-1.41,2.58-11C124.21,38.5,119.75,38.73,119.75,38.73Z"/><path class="j" d="M102.19,56.72S99.78,49.77,103.3,47s7.31-.09,7.31-.09,2.83,9.39-1.77,11.43A5.52,5.52,0,0,1,102.19,56.72Z"/><path class="j" d="M125.21,45.67s-2.88-4.12-6.87-1.3-1.54,11.56-1.54,11.56a7,7,0,0,0,6,1.82C127,55.87,125.5,46.74,125.21,45.67Z"/><path class="k" d="M107.29,50.94a3.75,3.75,0,0,0,0,5.4C110.35,58.69,109.41,49.3,107.29,50.94Z"/><path class="k" d="M121.15,49.53a3.43,3.43,0,0,0,0,4.93C123.74,56.11,123.27,47.65,121.15,49.53Z"/></symbol><symbol id="k" viewBox="0 0 200 200"><rect class="a" width="200" height="200"/><path class="q" d="M75.58,48s-12,4.2-5.79,16.62c0,0,2.87,9.71,18.55,3.3S75.58,48,75.58,48"/><path class="e" d="M100.91,67.76s-22.74,2.16-25.15-16.4c-.55-4.22-1.58-15.46,23.49-17.58,7.52-.64,28,2.75,28,15.71C127.2,65,108.82,67.87,100.91,67.76Z"/><path class="b" d="M108.69,138.69s-9.34-3.11-6.22,12.42c0,0-12.45-3.11-12.45,6.21,0,0-3.11,12.42,24.9,3.11C114.92,160.43,119,139.38,108.69,138.69Z"/><path class="e" d="M101.72,60s-28.09-3.62-29.13,62.88A23.33,23.33,0,0,0,75,133.65c3.61,7.24,12.3,16.88,32.32,11.94,30.54-7.56,30.54-30.21,19.43-40.28,0,0-4.71-6.31-12.33-39.53a5.79,5.79,0,0,0-3.08-4.3C109.45,60.69,106.48,60,101.72,60Z"/><path class="e" d="M91.57,39.81s-6.22-15.53-12.45-9.32S82.24,42.91,85.35,46"/><path class="e" d="M114.92,38.89s5.41-16.2,13.53-10.8c0,0,8.12,2.7-8.12,16.2"/><path class="b" d="M113.44,141.63s9.34,12.42,18.68,15.52c0,0,15.56,6.21,24.9,6.21,9.9,0,1.09-9.23-4.5-5.82,0,0,4.65-10.74-8.68-5,0,0,3.72-11.26-9.92-5.76,0,0,2.92-9.17-7.31-5.24,0,0,13.51-14.67-4.16-8.65,0,0-4.46-10-11-4.7C111.43,128.21,103.69,131.12,113.44,141.63Z"/><path class="b" d="M93.13,140.73s-9.34-3.1-6.22,12.42c0,0-12.45-3.1-12.45,6.21,0,0-3.12,12.42,24.89,3.11C99.35,162.47,102.69,141.42,93.13,140.73Z"/><path class="r" d="M91,94c-4.41,0-12.91-1.5-21.81-9.55,0,0,.79,6.74-2,9.83a3.29,3.29,0,0,1-5.34-.89,25.26,25.26,0,0,1-1.9-7.86S54.72,95.89,49.2,97.92a4.19,4.19,0,0,1-4.84-1.61c-1.75-2.55-4.21-8.06-.73-16,0,0-12.73,11.1-26.69-4.45A2.36,2.36,0,0,1,18.11,72c7.79-2.14,26.42-7.72,35.41-14.34,0,0,2.67-3.9,13.6,9.14C67.12,66.79,81,82,93,82,100,82,98,94,91,94Z"/><path class="r" d="M116.71,92c4.41,0,12.91-1.5,21.81-9.55,0,0-.79,6.74,2,9.83a3.29,3.29,0,0,0,5.34-.89,25.26,25.26,0,0,0,1.9-7.86s5.2,10.36,10.72,12.39a4.19,4.19,0,0,0,4.84-1.61c1.75-2.55,4.22-8.06.73-16,0,0,12.74,11.1,26.69-4.45A2.36,2.36,0,0,0,189.6,70c-7.79-2.14-26.41-7.72-35.4-14.34,0,0-2.68-3.9-13.61,9.14,0,0-13.84,15.21-25.88,15.21C107.71,80,109.71,92,116.71,92Z"/></symbol><symbol id="l" viewBox="0 0 200 200"><rect class="a" width="200" height="200"/><path class="q" d="M75.58,48s-12,4.2-5.79,16.62c0,0,2.87,9.71,18.55,3.3S75.58,48,75.58,48"/><path class="e" d="M100.91,67.76s-22.74,2.16-25.15-16.4c-.55-4.22-1.58-15.46,23.49-17.58,7.52-.64,28,2.75,28,15.71C127.2,65,108.82,67.87,100.91,67.76Z"/><path class="b" d="M98.84,132.27s-7.83,5.95,6.74,12.15c0,0-9.6,8.52-1.91,13.78,0,0,8.49,9.59,16.63-18.79C120.3,139.41,105.25,124.13,98.84,132.27Z"/><path class="e" d="M101.72,60s-28.09-3.62-29.13,62.88A23.33,23.33,0,0,0,75,133.65c3.61,7.24,12.3,16.88,32.32,11.94,30.54-7.56,30.54-30.21,19.43-40.28,0,0-4.71-6.31-12.33-39.53a5.79,5.79,0,0,0-3.08-4.3C109.45,60.69,106.48,60,101.72,60Z"/><path class="e" d="M91.57,39.81s-6.22-15.53-12.45-9.32S82.24,42.91,85.35,46"/><path class="e" d="M114.92,38.89s5.41-16.2,13.53-10.8c0,0,8.12,2.7-8.12,16.2"/><path class="b" d="M113.44,141.63s9.34,12.42,18.68,15.52c0,0,15.56,6.21,24.9,6.21,9.9,0,1.09-9.23-4.5-5.82,0,0,4.65-10.74-8.68-5,0,0,3.72-11.26-9.92-5.76,0,0,2.92-9.17-7.31-5.24,0,0,13.51-14.67-4.16-8.65,0,0-4.46-10-11-4.7C111.43,128.21,103.69,131.12,113.44,141.63Z"/><path class="b" d="M90.62,134s-8,5.7,6.34,12.37c0,0-9.87,8.2-2.36,13.71,0,0,8.18,9.86,17.23-18.24C111.83,141.83,96.83,126.69,90.62,134Z"/><path class="r" d="M94.69,91.39c-3.86,2.12-12,4.89-23.71,2.11,0,0,3.93,5.53,2.94,9.6a3.29,3.29,0,0,1-5.11,1.78,25.35,25.35,0,0,1-5.45-6s.43,11.59-3.43,16a4.2,4.2,0,0,1-5,.9c-2.77-1.39-7.57-5-8.35-13.71,0,0-5.83,15.86-25.54,8.93a2.37,2.37,0,0,1-.82-3.93C26,101.5,39.65,87.66,44.35,77.53c0,0,.48-4.7,16.33,1.48,0,0,19.44,6.69,30,.9C96.82,76.54,100.83,88,94.69,91.39Z"/><path class="r" d="M111,91.43c4.07,1.7,12.49,3.59,23.81-.41,0,0-3.33,5.92-1.92,9.86a3.29,3.29,0,0,0,5.27,1.24A25.3,25.3,0,0,0,143,95.59s.79,11.57,5.1,15.57a4.19,4.19,0,0,0,5.09.38c2.6-1.68,7-5.81,6.86-14.52,0,0,7.47,15.16,26.34,6.19a2.37,2.37,0,0,0,.4-4c-6.36-5-21.4-17.3-27.14-26.88,0,0-1-4.63-16.08,3.19,0,0-18.63,8.7-29.74,4C107.33,76.88,104.55,88.73,111,91.43Z"/></symbol><symbol id="m" viewBox="0 0 200 200"><rect class="a" width="200" height="200"/><path class="q" d="M75.58,48s-12,4.2-5.79,16.62c0,0,2.87,9.71,18.55,3.3S75.58,48,75.58,48"/><path class="e" d="M100.91,67.76s-22.74,2.16-25.15-16.4c-.55-4.22-1.58-15.46,23.49-17.58,7.52-.64,28,2.75,28,15.71C127.2,65,108.82,67.87,100.91,67.76Z"/><path class="b" d="M97.82,129.93s-7.28,6.62,7.78,11.51c0,0-8.81,9.34-.68,13.9,0,0,9.3,8.8,14.9-20.19C119.82,135.15,103.49,121.25,97.82,129.93Z"/><path class="e" d="M101.72,60s-28.09-3.62-29.13,62.88A23.33,23.33,0,0,0,75,133.65c3.61,7.24,12.3,16.88,32.32,11.94,30.54-7.56,30.54-30.21,19.43-40.28,0,0-4.71-6.31-12.33-39.53a5.79,5.79,0,0,0-3.08-4.3C109.45,60.69,106.48,60,101.72,60Z"/><path class="e" d="M91.57,39.81s-6.22-15.53-12.45-9.32S82.24,42.91,85.35,46"/><path class="e" d="M114.92,38.89s5.41-16.2,13.53-10.8c0,0,8.12,2.7-8.12,16.2"/><path class="b" d="M113.44,141.63s9.34,12.42,18.68,15.52c0,0,15.56,6.21,24.9,6.21,9.9,0,1.09-9.23-4.5-5.82,0,0,4.65-10.74-8.68-5,0,0,3.72-11.26-9.92-5.76,0,0,2.92-9.17-7.31-5.24,0,0,13.51-14.67-4.16-8.65,0,0-4.46-10-11-4.7C111.43,128.21,103.69,131.12,113.44,141.63Z"/><path class="b" d="M89,133.82s-6.5,7.4,9,10.58c0,0-7.71,10.25.87,13.88,0,0,10.22,7.71,12.56-21.72C111.43,136.56,93.34,125.29,89,133.82Z"/><path class="r" d="M98,87.88C96.45,92,92.09,99.46,81.45,105c0,0,6.59,1.59,8.51,5.31a3.29,3.29,0,0,1-2.69,4.7,25.36,25.36,0,0,1-8-.94s7.91,8.47,7.9,14.35a4.19,4.19,0,0,1-3.19,4c-3,.76-9,1.16-15.29-4.89,0,0,6,15.8-13.44,23.49A2.36,2.36,0,0,1,52,148.59c.69-8.05,1.93-27.45-1.16-38.18,0,0-2.72-3.86,13.3-9.58,0,0,19.07-7.7,23.25-19C89.85,75.27,100.41,81.32,98,87.88Z"/><path class="r" d="M106,86.82c1.81,4,6.67,11.15,17.67,16,0,0-6.47,2-8.14,5.89a3.3,3.3,0,0,0,3,4.51,25.48,25.48,0,0,0,8-1.5s-7.32,9-6.91,14.86a4.18,4.18,0,0,0,3.46,3.75c3,.56,9.07.54,14.92-5.91,0,0-4.9,16.17,15,22.51a2.37,2.37,0,0,0,3-2.64c-1.25-8-3.8-27.25-1.45-38.17,0,0,2.45-4-13.93-8.65,0,0-19.54-6.38-24.48-17.36C113.23,73.68,103.11,80.43,106,86.82Z"/></symbol><symbol id="n" viewBox="0 0 200 200"><rect class="a" width="200" height="200"/><path class="q" d="M75.58,48s-12,4.2-5.79,16.62c0,0,2.87,9.71,18.55,3.3S75.58,48,75.58,48"/><path class="e" d="M100.91,67.76s-22.74,2.16-25.15-16.4c-.55-4.22-1.58-15.46,23.49-17.58,7.52-.64,28,2.75,28,15.71C127.2,65,108.82,67.87,100.91,67.76Z"/><path class="b" d="M97.82,129.93s-7.28,6.62,7.78,11.51c0,0-8.81,9.34-.68,13.9,0,0,9.3,8.8,14.9-20.19C119.82,135.15,103.49,121.25,97.82,129.93Z"/><path class="e" d="M101.72,60s-28.09-3.62-29.13,62.88A23.33,23.33,0,0,0,75,133.65c3.61,7.24,12.3,16.88,32.32,11.94,30.54-7.56,30.54-30.21,19.43-40.28,0,0-4.71-6.31-12.33-39.53a5.79,5.79,0,0,0-3.08-4.3C109.45,60.69,106.48,60,101.72,60Z"/><path class="e" d="M91.57,39.81s-6.22-15.53-12.45-9.32S82.24,42.91,85.35,46"/><path class="e" d="M114.92,38.89s5.41-16.2,13.53-10.8c0,0,8.12,2.7-8.12,16.2"/><path class="b" d="M113.44,141.63s9.34,12.42,18.68,15.52c0,0,15.56,6.21,24.9,6.21,9.9,0,1.09-9.23-4.5-5.82,0,0,4.65-10.74-8.68-5,0,0,3.72-11.26-9.92-5.76,0,0,2.92-9.17-7.31-5.24,0,0,13.51-14.67-4.16-8.65,0,0-4.46-10-11-4.7C111.43,128.21,103.69,131.12,113.44,141.63Z"/><path class="b" d="M89,133.82s-6.5,7.4,9,10.58c0,0-7.71,10.25.87,13.88,0,0,10.22,7.71,12.56-21.72C111.43,136.56,93.34,125.29,89,133.82Z"/><path class="r" d="M91,94c-4.37.61-13,.32-22.94-6.4,0,0,1.73,6.56-.63,10A3.29,3.29,0,0,1,62,97.49,25.4,25.4,0,0,1,59,90s-3.68,11-8.87,13.78a4.19,4.19,0,0,1-5-.92c-2.1-2.28-5.31-7.39-3-15.78,0,0-11,12.78-27-.66a2.36,2.36,0,0,1,.62-4c7.41-3.21,25.07-11.35,33-19.17,0,0,2.11-4.23,14.76,7.15,0,0,15.83,13.11,27.75,11.42C98.2,80.85,97.91,93,91,94Z"/><path class="r" d="M110.2,92.13c4.32.84,13,1,23.23-5.23,0,0-2.06,6.47.11,10a3.3,3.3,0,0,0,5.42.15,25.22,25.22,0,0,0,3.36-7.36s3.13,11.16,8.16,14.21a4.18,4.18,0,0,0,5.06-.66c2.21-2.17,5.67-7.1,3.77-15.61,0,0,10.39,13.33,27.05.72a2.36,2.36,0,0,0-.42-4c-7.23-3.59-24.46-12.61-32-20.83,0,0-1.89-4.33-15.1,6.39,0,0-16.48,12.29-28.3,10C103.65,78.63,103.33,90.79,110.2,92.13Z"/></symbol><symbol id="o" viewBox="0 0 200 200"><rect class="a" width="200" height="200"/><path class="q" d="M75.58,48s-12,4.2-5.79,16.62c0,0,2.87,9.71,18.55,3.3S75.58,48,75.58,48"/><path class="e" d="M100.91,67.76s-22.74,2.16-25.15-16.4c-.55-4.22-1.58-15.46,23.49-17.58,7.52-.64,28,2.75,28,15.71C127.2,65,108.82,67.87,100.91,67.76Z"/><path class="b" d="M97.82,129.93s-7.28,6.62,7.78,11.51c0,0-8.81,9.34-.68,13.9,0,0,9.3,8.8,14.9-20.19C119.82,135.15,103.49,121.25,97.82,129.93Z"/><path class="e" d="M101.72,60s-28.09-3.62-29.13,62.88A23.33,23.33,0,0,0,75,133.65c3.61,7.24,12.3,16.88,32.32,11.94,30.54-7.56,30.54-30.21,19.43-40.28,0,0-4.71-6.31-12.33-39.53a5.79,5.79,0,0,0-3.08-4.3C109.45,60.69,106.48,60,101.72,60Z"/><path class="e" d="M91.57,39.81s-6.22-15.53-12.45-9.32S82.24,42.91,85.35,46"/><path class="e" d="M114.92,38.89s5.41-16.2,13.53-10.8c0,0,8.12,2.7-8.12,16.2"/><path class="b" d="M113.44,141.63s9.34,12.42,18.68,15.52c0,0,15.56,6.21,24.9,6.21,9.9,0,1.09-9.23-4.5-5.82,0,0,4.65-10.74-8.68-5,0,0,3.72-11.26-9.92-5.76,0,0,2.92-9.17-7.31-5.24,0,0,13.51-14.67-4.16-8.65,0,0-4.46-10-11-4.7C111.43,128.21,103.69,131.12,113.44,141.63Z"/><path class="b" d="M89,133.82s-6.5,7.4,9,10.58c0,0-7.71,10.25.87,13.88,0,0,10.22,7.71,12.56-21.72C111.43,136.56,93.34,125.29,89,133.82Z"/><path class="r" d="M87.2,93.26c-3.68-2.42-9.94-8.36-12.94-20,0,0-3.05,6.06-7.11,7.09a3.3,3.3,0,0,1-4-3.69,25.5,25.5,0,0,1,2.74-7.61s-10,5.79-15.77,4.44a4.19,4.19,0,0,1-3.15-4c0-3.09.92-9,8.23-13.79,0,0-16.75,2.25-19.82-18.41a2.36,2.36,0,0,1,3.08-2.56c7.68,2.51,26.3,8.11,37.45,7.53,0,0,4.38-1.77,6.32,15.14,0,0,3.17,20.31,13.22,26.94C101.32,88.21,93,97.12,87.2,93.26Z"/><path class="r" d="M117.71,93.41c3.88-2.1,10.64-7.46,14.64-18.78,0,0,2.51,6.31,6.46,7.69A3.3,3.3,0,0,0,143.09,79,25.08,25.08,0,0,0,141,71.18s9.49,6.65,15.32,5.81a4.19,4.19,0,0,0,3.49-3.72c.33-3.08-.12-9.09-7-14.46,0,0,16.49,3.72,21.37-16.6a2.36,2.36,0,0,0-2.85-2.82c-7.87,1.82-26.91,5.77-38,4.21,0,0-4.2-2.15-7.62,14.52,0,0-4.94,20-15.54,25.68C104.08,87.13,111.55,96.73,117.71,93.41Z"/></symbol></defs><title>drage_spritesheet</title><use width="200" height="200" transform="translate(1 800)" xlink:href="#a"/><use width="200" height="200" transform="translate(200 600)" xlink:href="#b"/><use width="200" height="200" transform="translate(0 400)" xlink:href="#c"/><use width="200" height="200" transform="translate(200 400)" xlink:href="#d"/><use width="200" height="200" xlink:href="#e"/><use width="200" height="200" transform="translate(200)" xlink:href="#f"/><use width="200" height="200" transform="translate(400)" xlink:href="#g"/><use width="200" height="200" transform="translate(600)" xlink:href="#h"/><use width="200" height="200" transform="translate(800)" xlink:href="#f"/><use width="200" height="200" transform="translate(0 600)" xlink:href="#j"/><use width="200" height="200" transform="translate(1 200)" xlink:href="#k"/><use width="200" height="200" transform="translate(200.75 200)" xlink:href="#l"/><use width="200" height="200" transform="translate(400.5 200)" xlink:href="#m"/><use width="200" height="200" transform="translate(600.25 200)" xlink:href="#n"/><use width="200" height="200" transform="translate(800 200)" xlink:href="#o"/><use width="200" height="200" transform="translate(0 1000)" xlink:href="#k"/><use width="200" height="200" transform="translate(199.75 1000)" xlink:href="#l"/></svg>
